<svg xmlns="http://www.w3.org/2000/svg" width="1113" height="483" fill="none" viewBox="0 0 1113 483"><circle cx="471" cy="71" r="71" fill="#fff"/><path fill="#222" d="M439.439 82.703c1.589 0 2.436-1.06 2.436-2.86 0-1.694-1.165-2.647-2.965-2.647-1.377 0-2.33.847-2.33 2.541 0 1.907 1.271 2.966 2.859 2.966zm7.838 5.295c-2.542 0-7.943-.318-13.027-1.059-1.483-.212-2.436-2.118-2.436-13.662 0-3.6.212-7.096 1.059-10.379.636-2.542 1.271-4.024 3.072-4.024 4.236 0 8.578.212 11.649.53-1.482 1.694-1.906 6.99-1.906 13.132 0 9.531.635 13.662 1.589 15.462zm13.026 2.648c2.648 0 5.613-.742 8.155-1.695 1.377 1.8 4.13 3.495 6.248 3.495 2.754 0 6.249-2.753 7.414-5.93 3.071-.636 5.719-2.86 6.248-5.931 2.542-.742 4.872-3.495 4.872-6.673 0-.847-.212-1.8-.529-2.753.953-.742 1.588-1.8 1.8-3.177 6.46.953 10.379 1.376 12.073 1.376 5.613 0 8.791-4.024 8.791-7.943 0-4.977-2.754-7.413-7.52-8.26-24.358-4.237-28.383-4.343-31.878-4.343-3.601 0-11.544 3.495-24.57 8.579-1.377-2.118-4.872-3.071-15.674-3.071-4.554 0-6.461 2.435-8.049 8.366-.742 2.966-1.059 6.355-1.059 10.697 0 15.78 2.647 18.004 7.413 18.745 3.283.424 12.709 1.06 16.098 1.06 1.589 0 2.224-1.271 2.754-3.284 2.443.473 4.925.72 7.413.742zm14.192-1.695c-1.059 0-2.33-.635-2.966-1.27.953-.53 1.801-.954 2.436-1.272.53.742.741 1.06.741 1.06l.106-.212c.318-5.19-2.753-8.897-6.566-7.626l-.106.212a255.729 255.729 0 0 1 3.177 3.495c-3.495 1.271-7.731 2.86-11.226 2.86-3.071 0-6.99-.424-9.637-.848-.318-2.435-.742-6.884-.742-12.92 0-3.495.212-8.155 1.377-9.744 13.662-5.613 21.605-8.896 24.888-8.896 3.283 0 7.096.212 31.772 4.448 1.695.318 2.648 1.377 2.648 3.177 0 1.695-1.483 2.86-3.813 2.86-2.435 0-8.896-.424-20.546-1.906-4.448-4.025-6.248-4.449-8.366-4.449-1.165 0-4.025.848-6.46 3.495l.317.212c1.695-.741 3.813-1.059 4.554-1.059 1.483 0 2.966.212 8.155 5.613 3.071 3.495 4.978 6.143 4.978 8.579 0 .847-.636 1.694-1.483 2.118-.953-2.224-2.965-4.978-5.295-7.52-3.178-3.389-5.613-5.613-8.155-5.613-1.589 0-3.813 1.483-4.872 3.495l.212.318c1.694-.741 2.542-.741 3.071-.741 2.33 0 4.236 2.118 6.566 4.554 3.178 3.6 5.402 7.201 5.402 9.214 0 .953-.953 1.694-2.224 2.118-.848-2.436-3.178-6.355-5.402-8.473-2.012-1.906-3.389-3.177-5.083-3.177-1.059 0-2.86 1.059-4.025 2.754l.106.317a9.32 9.32 0 0 1 2.118-.317c1.695 0 2.542.847 4.131 2.435 3.812 3.919 4.448 7.943 4.448 9.002 0 2.013-2.542 3.707-4.236 3.707z"/><path fill="#fff" d="M9.092 97.502c0 24.534 21.228 41.586 51.852 41.586 30.624 0 52.026-17.922 52.026-43.5l-.174-76.908L128.108 6.5H92.612l15.312 12.18.174 73.776c0 17.748-12.354 28.014-30.624 28.014-18.444 0-31.32-10.614-31.32-28.71l-.348-73.08L54.854 6.5H.044l9.048 12.18v78.822z"/><path fill="#fff" d="M261.766 6.5H226.27l15.312 12.18v59.508h-2.61L173.026 4.586l-49.416 3.48 14.79 15.312V124.82L123.088 137h35.496l-15.312-12.18V31.382h2.436l100.746 112.752V18.68L261.766 6.5zM346.959 133.172h-37.41V71.75h18.792l17.574 26.274V41.822l-17.574 26.1h-18.792V10.328h32.016l34.104 40.716-4.698-41.064V6.5H263.787l9.048 12.18v106.14L263.787 137h112.926v-3.48l4.002-45.936-33.756 45.588zM113.304 348.197c27.144 0 49.068-17.226 49.068-42.282v-114.84l9.048-11.31h-55.506l9.744 11.31v114.666c0 21.576-.348 38.802-9.918 38.802-12.354 0-7.308-31.146-25.404-31.146-8.178 0-13.746 5.742-13.746 13.92 0 11.832 13.572 20.88 36.714 20.88zM245.906 312.353c39.15 0 71.166-30.798 71.166-68.556 0-37.062-32.016-67.512-71.166-67.512s-71.166 30.45-71.166 67.512c0 37.758 32.016 68.556 71.166 68.556zm0-4.002c-22.446 0-32.19-21.228-32.19-64.554 0-44.37 10.614-63.51 32.19-63.51 22.446 0 32.19 20.88 32.19 63.51 0 45.24-10.614 64.554-32.19 64.554zM330.547 270.767c0 24.534 21.228 41.586 51.852 41.586 30.624 0 52.026-17.922 52.026-43.5l-.174-76.908 15.312-12.18h-35.496l15.312 12.18.174 73.776c0 17.748-12.354 28.014-30.624 28.014-18.444 0-31.32-10.614-31.32-28.71l-.348-73.08 9.048-12.18h-54.81l9.048 12.18v78.822zM542.706 310.265h44.544l-50.46-65.772v-2.958c20.01-5.742 33.582-17.052 33.582-30.276 0-18.096-22.62-31.494-54.984-31.494h-64.554l9.048 12.18v107.01l-9.048 11.31h54.81l-9.048-11.31v-52.2l46.11 63.51zM509.82 183.593c13.572 0 23.142 11.832 23.142 28.71 0 17.748-10.962 30.102-26.622 30.102h-9.744v-58.812h13.224z"/><path fill="#fff" d="M720.178 179.765h-35.496l15.312 12.18v59.508h-2.61l-65.946-73.602-49.416 3.48 14.79 15.312v101.442l-15.312 12.18h35.496l-15.312-12.18v-93.438h2.436l100.746 112.752V191.945l15.312-12.18zM779.271 135.569l-10.092 37.062 49.068-37.062h-38.976zm26.1 170.868h-37.41v-61.422h18.792l17.574 26.274v-56.202l-17.574 26.1h-18.792v-57.594h32.016l34.104 40.716-4.698-41.064v-3.48H722.199l9.048 12.18v106.14l-9.048 12.18h112.926v-3.48l4.002-45.936-33.756 45.588zM927.205 306.437h-37.41v-61.422h18.792l17.574 26.274v-56.202l-17.574 26.1h-18.792v-57.594h32.016l34.104 40.716-4.698-41.064v-3.48H844.033l9.048 12.18v106.14l-9.048 12.18h112.926v-3.48l4.002-45.936-33.756 45.588zM58.508 352.158H1.088l9.048 12.18v106.14l-9.048 12.18h57.42c46.11 0 79.692-28.536 79.692-66.468 0-36.54-33.582-64.032-79.692-64.032zM56.246 478.83H46.85V355.986h9.57c25.056 0 42.456 24.708 42.456 60.204 0 36.888-17.4 62.64-42.63 62.64zM226.824 478.83h-37.41v-61.422h18.792l17.574 26.274V387.48l-17.574 26.1h-18.792v-57.594h32.016l34.104 40.716-4.698-41.064v-3.48H143.652l9.048 12.18v106.14l-9.048 12.18h112.926v-3.48l4.002-45.936-33.756 45.588zM381.542 478.482h-33.93V363.468l10.44-11.31H301.85l9.048 11.31v107.88l-9.048 11.31h110.142v-3.48l4.872-51.504-35.322 50.808zM430.353 363.468v107.88l-9.048 11.31h54.81l-9.048-11.31v-107.88l9.048-11.31h-54.81l9.048 11.31zM607.462 447.684c-.174-17.226-19.14-29.058-50.112-32.016v-2.436c29.406-2.784 44.892-13.746 44.892-29.406 0-18.618-24.534-31.668-60.03-31.668h-61.944l9.048 12.18v106.14l-9.048 12.18h62.64c39.498 0 64.728-13.572 64.554-34.974zm-67.86-91.698c14.964 0 25.23 11.31 25.23 27.666 0 17.226-9.57 29.058-23.142 29.058h-15.66v-56.724h13.572zm1.566 122.844H526.03v-62.292h15.66c18.618 0 27.666 15.312 27.666 30.624 0 15.834-9.396 31.668-28.188 31.668zM694.11 478.83H656.7v-61.422h18.792l17.574 26.274V387.48l-17.574 26.1H656.7v-57.594h32.016l34.104 40.716-4.698-41.064v-3.48H610.938l9.048 12.18v106.14l-9.048 12.18h112.926v-3.48l4.002-45.936-33.756 45.588zM824.644 482.658h44.544l-50.46-65.772v-2.958c20.01-5.742 33.582-17.052 33.582-30.276 0-18.096-22.62-31.494-54.984-31.494h-64.554l9.048 12.18v107.01l-9.048 11.31h54.81l-9.048-11.31v-52.2l46.11 63.51zm-32.886-126.672c13.572 0 23.142 11.832 23.142 28.71 0 17.748-10.962 30.102-26.622 30.102h-9.744v-58.812h13.224zM954.4 355.986l37.062 44.718-6.612-45.066v-3.48H864.964v3.48l-6.612 45.066 36.888-44.718h11.31v115.362l-10.44 11.31h57.594l-10.44-11.31V355.986H954.4zM1053.05 307.962l-10.09 37.062 49.07-37.062h-38.98zm26.1 170.868h-37.41v-61.422h18.79l17.58 26.274V387.48l-17.58 26.1h-18.79v-57.594h32.02l34.1 40.716-4.7-41.064v-3.48H995.981l9.049 12.18v106.14l-9.049 12.18h112.929v-3.48l4-45.936-33.76 45.588z"/></svg>