<svg width="1128" height="508" viewBox="0 0 1128 508" fill="none" xmlns="http://www.w3.org/2000/svg">
<circle cx="472" cy="81" r="71" fill="white"/>
<path d="M440.439 92.7027C442.028 92.7027 442.875 91.6436 442.875 89.8432C442.875 88.1487 441.71 87.1956 439.91 87.1956C438.533 87.1956 437.58 88.0428 437.58 89.7373C437.58 91.6436 438.851 92.7027 440.439 92.7027ZM448.277 97.9981C445.735 97.9981 440.334 97.6803 435.25 96.939C433.767 96.7272 432.814 94.8209 432.814 83.277C432.814 79.6762 433.026 76.1812 433.873 72.8981C434.509 70.3564 435.144 68.8737 436.945 68.8737C441.181 68.8737 445.523 69.0855 448.594 69.4032C447.112 71.0977 446.688 76.393 446.688 82.5357C446.688 92.0673 447.323 96.1976 448.277 97.9981ZM461.303 100.646C463.951 100.646 466.916 99.9044 469.458 98.9512C470.835 100.752 473.588 102.446 475.706 102.446C478.46 102.446 481.955 99.6926 483.12 96.5154C486.191 95.8799 488.839 93.6559 489.368 90.5846C491.91 89.8432 494.24 87.0896 494.24 83.9124C494.24 83.0652 494.028 82.112 493.711 81.1589C494.664 80.4175 495.299 79.3584 495.511 77.9817C501.971 78.9348 505.89 79.3584 507.584 79.3584C513.198 79.3584 516.375 75.334 516.375 71.4154C516.375 66.4378 513.621 64.0019 508.855 63.1547C484.497 58.9184 480.472 58.8125 476.977 58.8125C473.377 58.8125 465.434 62.3074 452.407 67.391C451.03 65.2728 447.535 64.3197 436.733 64.3197C432.179 64.3197 430.272 66.7555 428.684 72.6863C427.942 75.6517 427.625 79.0407 427.625 83.3829C427.625 99.163 430.272 101.387 435.038 102.128C438.321 102.552 447.747 103.188 451.136 103.188C452.725 103.188 453.36 101.917 453.89 99.9044C456.333 100.377 458.815 100.625 461.303 100.646ZM475.495 98.9512C474.436 98.9512 473.165 98.3158 472.529 97.6803C473.482 97.1508 474.33 96.7272 474.965 96.4095C475.495 97.1508 475.706 97.4685 475.706 97.4685L475.812 97.2567C476.13 92.0673 473.059 88.3605 469.246 89.6314L469.14 89.8432C470.411 91.22 471.47 92.385 472.317 93.3382C468.823 94.609 464.586 96.1976 461.091 96.1976C458.02 96.1976 454.101 95.774 451.454 95.3504C451.136 92.9145 450.712 88.4664 450.712 82.4297C450.712 78.9348 450.924 74.2749 452.089 72.6863C465.751 67.0732 473.694 63.7901 476.977 63.7901C480.26 63.7901 484.073 64.0019 508.749 68.2382C510.444 68.5559 511.397 69.615 511.397 71.4154C511.397 73.1099 509.914 74.2749 507.584 74.2749C505.149 74.2749 498.688 73.8513 487.039 72.3686C482.59 68.3441 480.79 67.9205 478.672 67.9205C477.507 67.9205 474.647 68.7678 472.212 71.4154L472.529 71.6272C474.224 70.8859 476.342 70.5682 477.083 70.5682C478.566 70.5682 480.049 70.78 485.238 76.1812C488.309 79.6762 490.216 82.3238 490.216 84.7597C490.216 85.607 489.58 86.4542 488.733 86.8778C487.78 84.6538 485.768 81.9002 483.438 79.3584C480.26 75.9694 477.825 73.7454 475.283 73.7454C473.694 73.7454 471.47 75.2281 470.411 77.2403L470.623 77.558C472.317 76.8167 473.165 76.8167 473.694 76.8167C476.024 76.8167 477.931 78.9348 480.26 81.3707C483.438 84.9715 485.662 88.5723 485.662 90.5846C485.662 91.5377 484.709 92.2791 483.438 92.7027C482.59 90.2669 480.26 86.3483 478.036 84.2302C476.024 82.3238 474.647 81.053 472.953 81.053C471.894 81.053 470.093 82.112 468.928 83.8065L469.034 84.1243C469.726 83.9372 470.437 83.8306 471.153 83.8065C472.847 83.8065 473.694 84.6538 475.283 86.2424C479.096 90.1609 479.731 94.1854 479.731 95.2445C479.731 97.2567 477.189 98.9512 475.495 98.9512Z" fill="#222222"/>
<path d="M10.092 107.502C10.092 132.036 31.32 149.088 61.944 149.088C92.568 149.088 113.97 131.166 113.97 105.588L113.796 28.68L129.108 16.5H93.612L108.924 28.68L109.098 102.456C109.098 120.204 96.744 130.47 78.474 130.47C60.03 130.47 47.154 119.856 47.154 101.76L46.806 28.68L55.854 16.5H1.044L10.092 28.68V107.502ZM262.766 16.5H227.27L242.582 28.68V88.188H239.972L174.026 14.586L124.61 18.066L139.4 33.378V134.82L124.088 147H159.584L144.272 134.82V41.382H146.708L247.454 154.134V28.68L262.766 16.5ZM347.959 143.172H310.549V81.75H329.341L346.915 108.024V51.822L329.341 77.922H310.549V20.328H342.565L376.669 61.044L371.971 19.98V16.5H264.787L273.835 28.68V134.82L264.787 147H377.713V143.52L381.715 97.584L347.959 143.172Z" fill="white"/>
<path d="M114.304 358.197C141.448 358.197 163.372 340.971 163.372 315.915V201.075L172.42 189.765H116.914L126.658 201.075V315.741C126.658 337.317 126.31 354.543 116.74 354.543C104.386 354.543 109.432 323.397 91.336 323.397C83.158 323.397 77.59 329.139 77.59 337.317C77.59 349.149 91.162 358.197 114.304 358.197ZM246.906 322.353C286.056 322.353 318.072 291.555 318.072 253.797C318.072 216.735 286.056 186.285 246.906 186.285C207.756 186.285 175.74 216.735 175.74 253.797C175.74 291.555 207.756 322.353 246.906 322.353ZM246.906 318.351C224.46 318.351 214.716 297.123 214.716 253.797C214.716 209.427 225.33 190.287 246.906 190.287C269.352 190.287 279.096 211.167 279.096 253.797C279.096 299.037 268.482 318.351 246.906 318.351ZM331.547 280.767C331.547 305.301 352.775 322.353 383.399 322.353C414.023 322.353 435.425 304.431 435.425 278.853L435.251 201.945L450.563 189.765H415.067L430.379 201.945L430.553 275.721C430.553 293.469 418.199 303.735 399.929 303.735C381.485 303.735 368.609 293.121 368.609 275.025L368.261 201.945L377.309 189.765H322.499L331.547 201.945V280.767ZM543.706 320.265H588.25L537.79 254.493V251.535C557.8 245.793 571.372 234.483 571.372 221.259C571.372 203.163 548.752 189.765 516.388 189.765H451.834L460.882 201.945V308.955L451.834 320.265H506.644L497.596 308.955V256.755L543.706 320.265ZM510.82 193.593C524.392 193.593 533.962 205.425 533.962 222.303C533.962 240.051 523 252.405 507.34 252.405H497.596V193.593H510.82ZM721.178 189.765H685.682L700.994 201.945V261.453H698.384L632.438 187.851L583.022 191.331L597.812 206.643V308.085L582.5 320.265H617.996L602.684 308.085V214.647H605.12L705.866 327.399V201.945L721.178 189.765ZM780.271 145.569L770.179 182.631L819.247 145.569H780.271ZM806.371 316.437H768.961V255.015H787.753L805.327 281.289V225.087L787.753 251.187H768.961V193.593H800.977L835.081 234.309L830.383 193.245V189.765H723.199L732.247 201.945V308.085L723.199 320.265H836.125V316.785L840.127 270.849L806.371 316.437ZM928.205 316.437H890.795V255.015H909.587L927.161 281.289V225.087L909.587 251.187H890.795V193.593H922.811L956.915 234.309L952.217 193.245V189.765H845.033L854.081 201.945V308.085L845.033 320.265H957.959V316.785L961.961 270.849L928.205 316.437Z" fill="white"/>
<path d="M81.78 488.482H47.85V373.468L58.29 362.158H2.088L11.136 373.468V481.348L2.088 492.658H112.23V489.178L117.102 437.674L81.78 488.482ZM260.999 479.956L207.407 360.244L164.255 363.898L175.913 383.734L134.675 480.13L117.101 492.658H158.687L139.895 480.304L153.815 447.07H204.797L219.935 481.174L203.405 492.658H274.571L260.999 479.956ZM155.555 443.068L177.131 391.738H179.915L202.883 443.068H155.555ZM393.757 488.482H359.827V373.468L370.267 362.158H314.065L323.113 373.468V481.348L314.065 492.658H424.207V489.178L429.079 437.674L393.757 488.482ZM442.568 373.468V481.348L433.52 492.658H488.33L479.282 481.348V373.468L488.33 362.158H433.52L442.568 373.468ZM619.677 457.684C619.503 440.458 600.537 428.626 569.565 425.668V423.232C598.971 420.448 614.457 409.486 614.457 393.826C614.457 375.208 589.923 362.158 554.427 362.158H492.483L501.531 374.338V480.478L492.483 492.658H555.123C594.621 492.658 619.851 479.086 619.677 457.684ZM551.817 365.986C566.781 365.986 577.047 377.296 577.047 393.652C577.047 410.878 567.477 422.71 553.905 422.71H538.245V365.986H551.817ZM553.383 488.83H538.245V426.538H553.905C572.523 426.538 581.571 441.85 581.571 457.162C581.571 472.996 572.175 488.83 553.383 488.83ZM706.324 488.83H668.914V427.408H687.706L705.28 453.682V397.48L687.706 423.58H668.914V365.986H700.93L735.034 406.702L730.336 365.638V362.158H623.152L632.2 374.338V480.478L623.152 492.658H736.078V489.178L740.08 443.242L706.324 488.83ZM836.858 492.658H881.402L830.942 426.886V423.928C850.952 418.186 864.524 406.876 864.524 393.652C864.524 375.556 841.904 362.158 809.54 362.158H744.986L754.034 374.338V481.348L744.986 492.658H799.796L790.748 481.348V429.148L836.858 492.658ZM803.972 365.986C817.544 365.986 827.114 377.818 827.114 394.696C827.114 412.444 816.152 424.798 800.492 424.798H790.748V365.986H803.972ZM966.615 365.986L1003.68 410.704L997.065 365.638V362.158H877.179V365.638L870.567 410.704L907.455 365.986H918.765V481.348L908.325 492.658H965.919L955.479 481.348V365.986H966.615ZM1065.27 317.962L1055.18 355.024L1104.24 317.962H1065.27ZM1091.37 488.83H1053.96V427.408H1072.75L1090.32 453.682V397.48L1072.75 423.58H1053.96V365.986H1085.97L1120.08 406.702L1115.38 365.638V362.158H1008.2L1017.24 374.338V480.478L1008.2 492.658H1121.12V489.178L1125.12 443.242L1091.37 488.83Z" fill="white"/>
<path d="M1022.15 167.652H1002.66L1027.2 186.183L1022.15 167.652ZM1057.47 248.649L1030.68 188.793L1009.1 190.62L1014.93 200.538L994.309 248.736L985.522 255H1006.32L996.919 248.823L1003.88 232.206H1029.37L1036.94 249.258L1028.67 255H1064.26L1057.47 248.649ZM1004.75 230.205L1015.54 204.54H1016.93L1028.41 230.205H1004.75Z" fill="white"/>
</svg>
